# xmcd CD database file
#
# Track frame offsets:
#	150
#	21181
#	41074
#	63898
#	89441
#	117737
#	147065
#	166950
#	192732
#	217106
#
# Disc length: 3135 seconds
#
# Revision: 0
# Processed by: cddbd v1.5.2PL0 Copyright (c) Steve Scherf et al.
# Submitted via: CDex 1.51
#
DISCID=970c3d0a
DTITLE=2002 - Believe - A Spiritual Romance
DYEAR=2012
DGENRE=New Age
TTITLE0=Believe
TTITLE1=A Dream Creation
TTITLE2=Chain Of Life
TTITLE3=We Meet Again
TTITLE4=Dreams Of Peace
TTITLE5=A Change Of Season
TTITLE6=Ready To Fly
TTITLE7=Yeshua
TTITLE8=Oasis
TTITLE9=Hold The Sky
EXTD=YEAR: 2012
EXTT0=
EXTT1=
EXTT2=
EXTT3=
EXTT4=
EXTT5=
EXTT6=
EXTT7=
EXTT8=
EXTT9=
PLAYORDER=
